<?xml version="1.0" encoding="UTF-8"?>
<svg width="33px" height="24px" viewBox="0 0 33 24" version="1.1" xmlns="http://www.w3.org/2000/svg" xmlns:xlink="http://www.w3.org/1999/xlink">
    <!-- Generator: Sketch 52.2 (67145) - http://www.bohemiancoding.com/sketch -->
    <title>Group 4</title>
    <desc>Created with Sketch.</desc>
    <g id="App" stroke="none" stroke-width="1" fill="none" fill-rule="evenodd">
        <g id="Resources---Copy" transform="translate(-51.000000, -137.000000)" stroke="#4A4A4A">
            <g id="Group-4" transform="translate(51.000000, 138.000000)">
                <path d="M14.6409534,17.4483208 C13.8541344,17.5973651 13.034395,17.6761473 12.1921541,17.6761473 C9.92415479,17.6761473 7.81932,17.1048779 6.08109135,16.1287028 L0.919298062,18 L3.41442733,13.9956183 C2.13683118,12.5441624 1.38430811,10.762982 1.38430811,8.83807363 C1.38430811,3.95694035 6.22314556,0 12.1921541,0 C17.8157283,0 22.4361554,3.51220595 22.9521017,8.0005145 C22.9157146,8.00017183 22.8792747,8 22.842783,8 C17.9590488,8 14,11.0776203 14,14.8740573 C14,15.7843047 14.2275922,16.6532298 14.6409534,17.4483208 Z" id="Combined-Shape"></path>
                <path d="M18.1615122,20.5660235 L14,22 L15.89881,18.8414679 C14.8780687,17.7206498 14.2782207,16.3518086 14.2782207,14.8740573 C14.2782207,11.0776203 18.2372696,8 23.1210038,8 C28.004738,8 31.9637868,11.0776203 31.9637868,14.8740573 C31.9637868,18.6704943 28.004738,21.7481145 23.1210038,21.7481145 C21.2829339,21.7481145 19.5758468,21.3121662 18.1615122,20.5660235 Z" id="Combined-Shape" transform="translate(22.981893, 15.000000) scale(-1, 1) translate(-22.981893, -15.000000) "></path>
            </g>
        </g>
    </g>
</svg>