<?xml version="1.0" encoding="UTF-8"?>
<svg width="19px" height="22px" viewBox="0 0 19 22" version="1.1" xmlns="http://www.w3.org/2000/svg" xmlns:xlink="http://www.w3.org/1999/xlink">
    <!-- Generator: Sketch 52.2 (67145) - http://www.bohemiancoding.com/sketch -->
    <title>Group</title>
    <desc>Created with Sketch.</desc>
    <g id="App" stroke="none" stroke-width="1" fill="none" fill-rule="evenodd">
        <g id="Resources---Copy" transform="translate(-178.000000, -138.000000)">
            <g id="Group" transform="translate(178.000000, 138.000000)">
                <rect id="Rectangle" stroke="#4A4A4A" x="0.5" y="0.5" width="17" height="21"></rect>
                <rect id="Rectangle" stroke="#4A4A4A" x="18.5" y="1.5" width="1" height="4"></rect>
                <rect id="Rectangle" stroke="#4A4A4A" x="18.5" y="8.5" width="1" height="4"></rect>
                <rect id="Rectangle" stroke="#4A4A4A" x="18.5" y="15.5" width="1" height="4"></rect>
                <path d="M6.26831073,13.4735387 C6.0631433,13.2341115 5.90682907,13.0369177 5.82319628,12.9155605 C5.80655018,12.8914057 5.79389771,12.8675379 5.78523887,12.8439568 C5.09360341,11.897757 4.21018711,10.5104455 4.07606427,9.69508095 C3.90030037,8.62657064 4.04153108,7.37858312 4.37228429,6.80333425 C4.4841356,6.60880148 5.69686665,4.7525795 6.6840032,5.02776734 C7.16716361,5.16245982 8.00032868,6.40251456 8.35098114,7.18938418 C8.70163361,7.9762538 8.39653944,8.14925716 8.11954501,8.50938207 C7.82615804,8.89081919 6.84764859,8.98580042 6.84764859,9.69508095 C6.84764859,10.4043615 7.47556785,11.3802507 7.93175373,11.8878424 C7.95440256,11.9130435 7.9679028,11.9486389 7.97331367,11.9926289 C7.98460218,11.9910462 7.99593409,11.9894667 8.00730939,11.9878903 C8.82999287,12.8991212 9.47687132,13.4079212 9.94794476,13.5142901 C10.6545549,13.6738435 10.9692953,12.7627049 11.4152941,12.5689162 C11.8363733,12.3859552 12.0773566,12.1341223 12.7823841,12.645296 C13.4874116,13.1564696 14.5353763,14.229415 14.5608742,14.7201588 C14.6129686,15.7227888 12.49093,16.4609441 12.2719685,16.5237764 C11.6244821,16.7095764 10.3494231,16.563431 9.32447395,16.1555681 C8.53165789,15.8400791 7.32655683,14.6586654 6.53987881,13.7828067 C6.53181957,13.776044 6.52394272,13.7686439 6.51625756,13.7605889 C6.4536891,13.6950092 6.36888246,13.5970031 6.26831073,13.4735387 Z" id="Combined-Shape" fill="#4A4A4A"></path>
            </g>
        </g>
    </g>
</svg>