<?xml version="1.0" encoding="UTF-8"?>
<svg width="33px" height="24px" viewBox="0 0 33 24" version="1.1" xmlns="http://www.w3.org/2000/svg" xmlns:xlink="http://www.w3.org/1999/xlink">
    <!-- Generator: Sketch 52.2 (67145) - http://www.bohemiancoding.com/sketch -->
    <title>Feedback/on</title>
    <desc>Created with Sketch.</desc>
    <g id="App" stroke="none" stroke-width="1" fill="none" fill-rule="evenodd">
        <g id="Resources---Copy" transform="translate(-292.000000, -137.000000)" stroke="#4A4A4A">
            <g id="Feedback/off" transform="translate(292.000000, 138.000000)">
                <g id="Group-4" transform="translate(0.500000, 0.000000)">
                    <path d="M3.91543029,20.401977 L0.162808254,21.6408163 L1.95222203,18.4122891 C1.92283412,18.3611528 1.89413966,18.3094118 1.86614575,18.2570677 C1.34322447,17.2792899 1.06474764,16.3094312 1.06474764,13.634875 L1.06474764,7.6916556 C1.06474764,5.01709938 1.34322447,4.04724067 1.86614575,3.06946289 C2.38906703,2.09168511 3.15643275,1.32431939 4.13421053,0.801398111 C5.11198831,0.278476833 6.08184702,1.06873433e-15 8.75640324,5.77426327e-16 L24.1070832,1.19893051e-15 C26.7816394,7.07622505e-16 27.7514981,0.278476833 28.7292759,0.801398111 C29.7070537,1.32431939 30.4744194,2.09168511 30.9973407,3.06946289 C31.520262,4.04724067 31.7987388,5.01709938 31.7987388,7.6916556 L31.7987388,13.634875 C31.7987388,16.3094312 31.520262,17.2792899 30.9973407,18.2570677 C30.4744194,19.2348455 29.7070537,20.0022112 28.7292759,20.5251325 C27.7514981,21.0480538 26.7816394,21.3265306 24.1070832,21.3265306 L8.75640324,21.3265306 C6.08184702,21.3265306 5.11198831,21.0480538 4.13421053,20.5251325 C4.06006904,20.4854812 3.98713735,20.4444244 3.91543029,20.401977 Z" id="Combined-Shape" transform="translate(15.899369, 10.820408) scale(-1, 1) translate(-15.899369, -10.820408) "></path>
                </g>
                <g id="Group" transform="translate(4.400000, 7.700000)" fill="#4A4A4A">
                    <polygon id="Star" points="2.75 4.125 1.13359056 4.97479673 1.44229729 3.17489837 0.13459458 1.90020327 1.94179528 1.63760163 2.75 0 3.55820472 1.63760163 5.36540542 1.90020327 4.05770271 3.17489837 4.36640944 4.97479673"></polygon>
                    <polygon id="Star" points="11.55 4.33728167 9.85040653 5.23081084 10.175 3.3382857 8.8 1.99799195 10.7002033 1.72187626 11.55 0 12.3997967 1.72187626 14.3 1.99799195 12.925 3.3382857 13.2495935 5.23081084"></polygon>
                    <polygon id="Star" points="20.35 4.33728167 18.6504065 5.23081084 18.975 3.3382857 17.6 1.99799195 19.5002033 1.72187626 20.35 0 21.1997967 1.72187626 23.1 1.99799195 21.725 3.3382857 22.0495935 5.23081084"></polygon>
                </g>
            </g>
        </g>
    </g>
</svg>